<svg width="25" height="22" viewBox="0 0 25 22" fill="none" xmlns="http://www.w3.org/2000/svg">
<path d="M1.94429 4.02832H23.4418L20.0474 15.3428H5.33863L1.94429 4.02832ZM1.94429 4.02832L1.0957 1.19971M10.9959 19.3029C10.9959 19.753 10.8171 20.1847 10.4988 20.5029C10.1805 20.8212 9.74881 21 9.29869 21C8.84858 21 8.41689 20.8212 8.09861 20.5029C7.78033 20.1847 7.60152 19.753 7.60152 19.3029M17.7845 19.3029C17.7845 19.753 17.6057 20.1847 17.2875 20.5029C16.9692 20.8212 16.5375 21 16.0874 21C15.6373 21 15.2056 20.8212 14.8873 20.5029C14.569 20.1847 14.3902 19.753 14.3902 19.3029" stroke="#050C12" stroke-width="1.18802" stroke-linecap="round" stroke-linejoin="round"/>
</svg>
