<svg width="702" height="134" viewBox="0 0 702 134" fill="none" xmlns="http://www.w3.org/2000/svg">
<g filter="url(#filter0_d_2084_13)">
<path d="M14.7161 77.6124C14.7161 80.4808 15.2712 82.7941 16.3816 84.5522C17.492 86.3103 19.25 87.1893 21.6558 87.1893C23.784 87.1893 25.4958 86.4028 26.7913 84.8298C28.0867 83.1642 28.7344 81.036 28.7344 78.4452V51.1024C28.7344 48.8817 28.0404 47.0774 26.6525 45.6894C25.3571 44.2089 23.6915 43.4687 21.6558 43.4687C18.9725 43.4687 17.1218 44.3015 16.104 45.967C15.1787 47.6325 14.7161 49.5757 14.7161 51.7964V77.6124ZM28.7344 94.1291C27.8091 95.1469 26.9301 96.1185 26.0973 97.0438C25.2645 97.8766 24.3392 98.6168 23.3214 99.2645C22.3036 99.9122 21.1469 100.421 19.8515 100.791C18.5561 101.161 17.0293 101.346 15.2712 101.346C9.44183 101.346 5.32422 99.1257 2.91843 94.6843C2.08566 93.1112 1.48421 91.1681 1.11409 88.8548C0.743968 86.5416 0.558908 83.4418 0.558908 79.5555V52.768C0.558908 47.6788 0.697703 43.9313 0.975294 41.5255C1.25289 39.1198 1.85433 37.1766 2.77964 35.6961C3.98253 33.8455 5.50928 32.3188 7.35989 31.1159C9.30303 29.913 11.9864 29.3115 15.41 29.3115C18.1859 29.3115 20.638 29.9592 22.7662 31.2547C24.9869 32.4576 26.8838 34.2156 28.4568 36.5289H28.7344V1.69121H42.8916V100.514H28.7344V94.1291ZM67.4128 70.6726V80.2495C67.4128 82.4702 68.0143 84.1821 69.2172 85.385C70.5126 86.5878 72.2244 87.1893 74.3526 87.1893C77.036 87.1893 78.7941 86.4028 79.6269 84.8298C80.5522 83.2568 81.1073 81.6837 81.2924 80.1107H95.4496C95.4496 83.0717 94.9406 85.8476 93.9228 88.4385C92.9975 91.0293 91.6095 93.25 89.7589 95.1006C87.9083 97.0438 85.6876 98.5705 83.0967 99.6809C80.5059 100.791 77.5912 101.346 74.3526 101.346C70.0037 101.346 66.2562 100.421 63.1102 98.5705C59.9641 96.7199 57.5584 94.2679 55.8928 91.2144C54.875 89.3638 54.181 87.2356 53.8109 84.8298C53.4407 82.424 53.2557 79.7869 53.2557 76.9184V53.7396C53.2557 50.8711 53.4407 48.234 53.8109 45.8282C54.181 43.4224 54.875 41.2942 55.8928 39.4436C57.5584 36.3901 59.9641 33.938 63.1102 32.0874C66.2562 30.2368 70.0037 29.3115 74.3526 29.3115C77.5912 29.3115 80.5059 29.8667 83.0967 30.9771C85.7801 32.0874 88.0009 33.6605 89.7589 35.6961C91.6095 37.6393 92.9975 39.9525 93.9228 42.6359C94.9406 45.3193 95.4496 48.1877 95.4496 51.2412V70.6726H67.4128ZM67.4128 59.569H81.2924V51.5188C81.2924 48.8354 80.6447 46.846 79.3493 45.5506C78.1464 44.1627 76.4808 43.4687 74.3526 43.4687C72.2244 43.4687 70.5126 44.1627 69.2172 45.5506C68.0143 46.846 67.4128 48.8354 67.4128 51.5188V59.569Z" fill="#D0D0D1"/>
<path d="M152.511 30.1443H138.354V26.952C138.354 23.7134 137.567 20.9375 135.994 18.6243C134.514 16.2185 131.969 15.0156 128.36 15.0156C126.417 15.0156 124.798 15.3857 123.503 16.1259C122.3 16.8662 121.328 17.8378 120.588 19.0407C119.94 20.151 119.477 21.4927 119.2 23.0657C118.922 24.5462 118.783 26.1192 118.783 27.7848C118.783 29.7279 118.83 31.3935 118.922 32.7814C119.107 34.0768 119.477 35.2335 120.033 36.2513C120.588 37.1766 121.374 38.0094 122.392 38.7496C123.503 39.4899 124.983 40.2301 126.834 40.9704L137.66 45.273C140.806 46.4759 143.35 47.9101 145.293 49.5757C147.237 51.1487 148.717 53.0456 149.735 55.2663C150.845 57.3945 151.585 59.8928 151.956 62.7613C152.326 65.5372 152.511 68.7295 152.511 72.3382C152.511 76.502 152.094 80.3883 151.262 83.997C150.429 87.5132 149.041 90.5667 147.098 93.1575C145.247 95.6558 142.749 97.6452 139.603 99.1257C136.457 100.606 132.617 101.346 128.083 101.346C124.659 101.346 121.467 100.745 118.506 99.5421C115.545 98.3392 113 96.7199 110.872 94.6843C108.744 92.5561 107.032 90.0577 105.737 87.1893C104.534 84.3209 103.932 81.2211 103.932 77.89V72.6158H118.089V77.0572C118.089 79.6481 118.83 82.0076 120.31 84.1358C121.883 86.1715 124.474 87.1893 128.083 87.1893C130.489 87.1893 132.339 86.8654 133.635 86.2177C135.023 85.4775 136.04 84.5059 136.688 83.303C137.428 82.0076 137.891 80.4346 138.076 78.584C138.261 76.7334 138.354 74.6977 138.354 72.477C138.354 69.8861 138.261 67.7579 138.076 66.0924C137.891 64.4268 137.475 63.0851 136.827 62.0673C136.272 61.0495 135.439 60.2167 134.329 59.569C133.311 58.9213 131.923 58.2273 130.165 57.487L120.033 53.3232C113.926 50.8248 109.808 47.54 107.68 43.4687C105.644 39.3048 104.626 34.1231 104.626 27.9236C104.626 24.2224 105.135 20.7062 106.153 17.3751C107.171 14.044 108.651 11.1756 110.595 8.76978C112.63 6.36399 115.175 4.46712 118.228 3.07916C121.282 1.59867 124.844 0.858428 128.916 0.858428C132.432 0.858428 135.624 1.50614 138.492 2.80157C141.453 4.09699 143.952 5.8088 145.987 7.937C148.116 10.0652 149.735 12.471 150.845 15.1544C151.956 17.7452 152.511 20.4286 152.511 23.2045V30.1443ZM162.261 1.69121H176.418V36.9453H176.696C178.176 34.7246 179.934 32.9202 181.97 31.5323C184.098 30.0518 186.782 29.3115 190.02 29.3115C191.778 29.3115 193.536 29.6354 195.295 30.2831C197.053 30.8383 198.626 31.8099 200.014 33.1978C201.402 34.5858 202.512 36.3901 203.345 38.6108C204.177 40.739 204.594 43.3762 204.594 46.5222V100.514H190.437V51.7964C190.437 49.2056 189.835 47.1699 188.632 45.6894C187.429 44.2089 185.718 43.4687 183.497 43.4687C180.814 43.4687 178.963 44.3015 177.945 45.967C176.927 47.6325 176.418 50.0383 176.418 53.1844V100.514H162.261V1.69121ZM229.115 70.6726V80.2495C229.115 82.4702 229.717 84.1821 230.919 85.385C232.215 86.5878 233.927 87.1893 236.055 87.1893C238.738 87.1893 240.496 86.4028 241.329 84.8298C242.254 83.2568 242.81 81.6837 242.995 80.1107H257.152C257.152 83.0717 256.643 85.8476 255.625 88.4385C254.7 91.0293 253.312 93.25 251.461 95.1006C249.611 97.0438 247.39 98.5705 244.799 99.6809C242.208 100.791 239.293 101.346 236.055 101.346C231.706 101.346 227.958 100.421 224.812 98.5705C221.666 96.7199 219.261 94.2679 217.595 91.2144C216.577 89.3638 215.883 87.2356 215.513 84.8298C215.143 82.424 214.958 79.7869 214.958 76.9184V53.7396C214.958 50.8711 215.143 48.234 215.513 45.8282C215.883 43.4224 216.577 41.2942 217.595 39.4436C219.261 36.3901 221.666 33.938 224.812 32.0874C227.958 30.2368 231.706 29.3115 236.055 29.3115C239.293 29.3115 242.208 29.8667 244.799 30.9771C247.482 32.0874 249.703 33.6605 251.461 35.6961C253.312 37.6393 254.7 39.9525 255.625 42.6359C256.643 45.3193 257.152 48.1877 257.152 51.2412V70.6726H229.115ZM229.115 59.569H242.995V51.5188C242.995 48.8354 242.347 46.846 241.052 45.5506C239.849 44.1627 238.183 43.4687 236.055 43.4687C233.927 43.4687 232.215 44.1627 230.919 45.5506C229.717 46.846 229.115 48.8354 229.115 51.5188V59.569ZM281.735 77.6124C281.735 80.4808 282.29 82.7941 283.4 84.5522C284.511 86.3103 286.269 87.1893 288.675 87.1893C290.803 87.1893 292.515 86.4028 293.81 84.8298C295.106 83.1642 295.753 81.036 295.753 78.4452V51.1024C295.753 48.8817 295.059 47.0774 293.671 45.6894C292.376 44.2089 290.71 43.4687 288.675 43.4687C285.991 43.4687 284.141 44.3015 283.123 45.967C282.198 47.6325 281.735 49.5757 281.735 51.7964V77.6124ZM295.753 94.1291C294.828 95.1469 293.949 96.1185 293.116 97.0438C292.283 97.8766 291.358 98.6168 290.34 99.2645C289.322 99.9122 288.166 100.421 286.87 100.791C285.575 101.161 284.048 101.346 282.29 101.346C276.461 101.346 272.343 99.1257 269.937 94.6843C269.105 93.1112 268.503 91.1681 268.133 88.8548C267.763 86.5416 267.578 83.4418 267.578 79.5555V52.768C267.578 47.6788 267.717 43.9313 267.994 41.5255C268.272 39.1198 268.873 37.1766 269.798 35.6961C271.001 33.8455 272.528 32.3188 274.379 31.1159C276.322 29.913 279.005 29.3115 282.429 29.3115C285.205 29.3115 287.657 29.9592 289.785 31.2547C292.006 32.4576 293.903 34.2156 295.476 36.5289H295.753V1.69121H309.91V100.514H295.753V94.1291ZM335.681 77.6124C335.681 80.4808 336.236 82.7941 337.346 84.5522C338.457 86.3103 340.215 87.1893 342.621 87.1893C344.749 87.1893 346.461 86.4028 347.756 84.8298C349.052 83.1642 349.699 81.036 349.699 78.4452V51.1024C349.699 48.8817 349.005 47.0774 347.617 45.6894C346.322 44.2089 344.656 43.4687 342.621 43.4687C339.937 43.4687 338.087 44.3015 337.069 45.967C336.144 47.6325 335.681 49.5757 335.681 51.7964V77.6124ZM349.699 94.1291C348.774 95.1469 347.895 96.1185 347.062 97.0438C346.229 97.8766 345.304 98.6168 344.286 99.2645C343.268 99.9122 342.112 100.421 340.816 100.791C339.521 101.161 337.994 101.346 336.236 101.346C330.407 101.346 326.289 99.1257 323.883 94.6843C323.05 93.1112 322.449 91.1681 322.079 88.8548C321.709 86.5416 321.524 83.4418 321.524 79.5555V52.768C321.524 47.6788 321.663 43.9313 321.94 41.5255C322.218 39.1198 322.819 37.1766 323.744 35.6961C324.947 33.8455 326.474 32.3188 328.325 31.1159C330.268 29.913 332.951 29.3115 336.375 29.3115C339.151 29.3115 341.603 29.9592 343.731 31.2547C345.952 32.4576 347.849 34.2156 349.422 36.5289H349.699V1.69121H363.856V100.514H349.699V94.1291ZM375.47 30.1443H389.627V100.514H375.47V30.1443ZM375.47 1.69121H389.627V15.8484H375.47V1.69121ZM401.223 30.1443H415.38V36.9453H415.657C417.138 34.7246 418.896 32.9202 420.932 31.5323C423.06 30.0518 425.743 29.3115 428.982 29.3115C430.74 29.3115 432.498 29.6354 434.256 30.2831C436.014 30.8383 437.587 31.8099 438.975 33.1978C440.363 34.5858 441.473 36.3901 442.306 38.6108C443.139 40.739 443.555 43.3762 443.555 46.5222V100.514H429.398V51.7964C429.398 49.2056 428.797 47.1699 427.594 45.6894C426.391 44.2089 424.679 43.4687 422.458 43.4687C419.775 43.4687 417.924 44.3015 416.907 45.967C415.889 47.6325 415.38 50.0383 415.38 53.1844V100.514H401.223V30.1443ZM469.326 108.703C469.418 110.368 470.066 111.941 471.269 113.422C472.564 114.902 474.415 115.642 476.821 115.642C479.134 115.642 480.8 114.902 481.817 113.422C482.835 112.034 483.344 110.229 483.344 108.009V94.1291H483.067C481.494 96.4423 479.597 98.2467 477.376 99.5421C475.248 100.745 472.749 101.346 469.881 101.346C464.052 101.346 459.934 99.1257 457.528 94.6843C456.695 93.1112 456.094 91.1681 455.724 88.8548C455.354 86.5416 455.169 83.4418 455.169 79.5555V52.768C455.169 47.6788 455.307 43.9313 455.585 41.5255C455.863 39.1198 456.464 37.1766 457.389 35.6961C458.592 33.8455 460.119 32.3188 461.97 31.1159C463.913 29.913 466.596 29.3115 470.02 29.3115C471.778 29.3115 473.258 29.4966 474.461 29.8667C475.757 30.2368 476.913 30.7458 477.931 31.3935C478.949 32.0412 479.874 32.8277 480.707 33.753C481.54 34.5858 482.419 35.5111 483.344 36.5289V30.1443H497.501V109.119C497.501 111.525 497.085 113.931 496.252 116.336C495.512 118.835 494.263 121.055 492.505 122.999C490.747 125.034 488.526 126.654 485.843 127.856C483.159 129.152 479.967 129.8 476.266 129.8C474.137 129.8 471.917 129.429 469.603 128.689C467.29 128.041 465.116 126.885 463.08 125.219C461.137 123.646 459.425 121.518 457.945 118.835C456.557 116.151 455.631 112.774 455.169 108.703H469.326ZM469.326 78.8616C469.326 81.0823 469.788 83.0254 470.714 84.691C471.732 86.3565 473.582 87.1893 476.266 87.1893C478.301 87.1893 479.967 86.4953 481.262 85.1074C482.65 83.6269 483.344 81.7763 483.344 79.5555V52.2128C483.344 49.622 482.696 47.54 481.401 45.967C480.106 44.3015 478.394 43.4687 476.266 43.4687C473.86 43.4687 472.102 44.3477 470.991 46.1058C469.881 47.8639 469.326 50.1771 469.326 53.0456V78.8616Z" fill="white"/>
<path d="M545 15.0156H528.622V1.69121H575.535V15.0156H559.157V100.514H545V15.0156ZM571.164 53.7396C571.164 50.8711 571.349 48.234 571.719 45.8282C572.089 43.4224 572.783 41.2942 573.801 39.4436C575.467 36.3901 577.872 33.938 581.018 32.0874C584.164 30.2368 587.912 29.3115 592.261 29.3115C596.61 29.3115 600.357 30.2368 603.503 32.0874C606.649 33.938 609.055 36.3901 610.721 39.4436C611.738 41.2942 612.432 43.4224 612.803 45.8282C613.173 48.234 613.358 50.8711 613.358 53.7396V76.9184C613.358 79.7869 613.173 82.424 612.803 84.8298C612.432 87.2356 611.738 89.3638 610.721 91.2144C609.055 94.2679 606.649 96.7199 603.503 98.5705C600.357 100.421 596.61 101.346 592.261 101.346C587.912 101.346 584.164 100.421 581.018 98.5705C577.872 96.7199 575.467 94.2679 573.801 91.2144C572.783 89.3638 572.089 87.2356 571.719 84.8298C571.349 82.424 571.164 79.7869 571.164 76.9184V53.7396ZM585.321 79.1391C585.321 81.8225 585.922 83.8582 587.125 85.2462C588.421 86.5416 590.133 87.1893 592.261 87.1893C594.389 87.1893 596.055 86.5416 597.257 85.2462C598.553 83.8582 599.201 81.8225 599.201 79.1391V51.5188C599.201 48.8354 598.553 46.846 597.257 45.5506C596.055 44.1627 594.389 43.4687 592.261 43.4687C590.133 43.4687 588.421 44.1627 587.125 45.5506C585.922 46.846 585.321 48.8354 585.321 51.5188V79.1391ZM622.534 53.7396C622.534 50.8711 622.72 48.234 623.09 45.8282C623.46 43.4224 624.154 41.2942 625.172 39.4436C626.837 36.3901 629.243 33.938 632.389 32.0874C635.535 30.2368 639.282 29.3115 643.631 29.3115C647.98 29.3115 651.728 30.2368 654.874 32.0874C658.02 33.938 660.426 36.3901 662.091 39.4436C663.109 41.2942 663.803 43.4224 664.173 45.8282C664.543 48.234 664.728 50.8711 664.728 53.7396V76.9184C664.728 79.7869 664.543 82.424 664.173 84.8298C663.803 87.2356 663.109 89.3638 662.091 91.2144C660.426 94.2679 658.02 96.7199 654.874 98.5705C651.728 100.421 647.98 101.346 643.631 101.346C639.282 101.346 635.535 100.421 632.389 98.5705C629.243 96.7199 626.837 94.2679 625.172 91.2144C624.154 89.3638 623.46 87.2356 623.09 84.8298C622.72 82.424 622.534 79.7869 622.534 76.9184V53.7396ZM636.692 79.1391C636.692 81.8225 637.293 83.8582 638.496 85.2462C639.791 86.5416 641.503 87.1893 643.631 87.1893C645.76 87.1893 647.425 86.5416 648.628 85.2462C649.923 83.8582 650.571 81.8225 650.571 79.1391V51.5188C650.571 48.8354 649.923 46.846 648.628 45.5506C647.425 44.1627 645.76 43.4687 643.631 43.4687C641.503 43.4687 639.791 44.1627 638.496 45.5506C637.293 46.846 636.692 48.8354 636.692 51.5188V79.1391ZM674.322 1.69121H688.479V80.6659C688.479 83.3493 688.941 85.1999 689.867 86.2177C690.884 87.143 692.735 87.7445 695.418 88.0221V101.346C692.18 101.346 689.219 101.069 686.536 100.514C683.945 100.051 681.724 99.1257 679.873 97.7378C678.115 96.2573 676.727 94.2216 675.709 91.6308C674.784 89.0399 674.322 85.7088 674.322 81.6375V1.69121Z" fill="#CED2D3"/>
</g>
<defs>
<filter id="filter0_d_2084_13" x="0.559082" y="0.858398" width="700.957" height="133.006" filterUnits="userSpaceOnUse" color-interpolation-filters="sRGB">
<feFlood flood-opacity="0" result="BackgroundImageFix"/>
<feColorMatrix in="SourceAlpha" type="matrix" values="0 0 0 0 0 0 0 0 0 0 0 0 0 0 0 0 0 0 127 0" result="hardAlpha"/>
<feOffset dx="6.09727" dy="4.06485"/>
<feComposite in2="hardAlpha" operator="out"/>
<feColorMatrix type="matrix" values="0 0 0 0 0.419608 0 0 0 0 0.443137 0 0 0 0 0.427451 0 0 0 1 0"/>
<feBlend mode="normal" in2="BackgroundImageFix" result="effect1_dropShadow_2084_13"/>
<feBlend mode="normal" in="SourceGraphic" in2="effect1_dropShadow_2084_13" result="shape"/>
</filter>
</defs>
</svg>
