<svg width="27" height="27" viewBox="0 0 27 27" fill="none" xmlns="http://www.w3.org/2000/svg">
<rect y="0.640137" width="26.1166" height="26.1166" rx="13.0583" fill="#4A4A4A"/>
<path opacity="0.3" d="M17.702 9.88965H8.41553L8.7595 17.3704H17.3581L17.702 9.88965Z" fill="white"/>
<path opacity="0.3" d="M17.702 9.88965H8.41553L12.6932 13.0817H13.4887L17.702 9.88965Z" fill="white"/>
<path opacity="0.1" d="M9.18896 17.3709L13.0586 13.8882L16.9283 17.3709H9.18896Z" fill="white"/>
<path fill-rule="evenodd" clip-rule="evenodd" d="M9.18921 10.535C9.18921 10.1791 8.90081 9.89014 8.54431 9.89014C8.18833 9.89014 7.89941 10.1791 7.89941 10.535C7.89941 11.9084 7.89941 15.1169 7.89941 16.5971C7.89941 17.0247 8.24611 17.3709 8.67329 17.3709C8.94776 17.3709 9.18921 17.3709 9.18921 17.3709C9.18921 17.3709 9.18921 12.3505 9.18921 10.535Z" fill="white"/>
<path fill-rule="evenodd" clip-rule="evenodd" d="M16.9277 10.5345C16.9277 10.1786 17.2166 9.88965 17.5726 9.88965C17.5731 9.88965 17.5737 9.88965 17.5737 9.88965C17.9296 9.88965 18.2175 10.178 18.2175 10.5335C18.2175 11.9064 18.2175 15.1159 18.2175 16.5966C18.2175 17.0243 17.8713 17.3704 17.4437 17.3704C17.1697 17.3704 16.9277 17.3704 16.9277 17.3704C16.9277 17.3704 16.9277 12.3501 16.9277 10.5345Z" fill="white"/>
<path fill-rule="evenodd" clip-rule="evenodd" d="M8.22122 11.0931C8.07315 11.0075 7.96533 10.8672 7.92096 10.7021C7.87659 10.537 7.8998 10.3616 7.98545 10.2135L7.98596 10.2125C8.07161 10.0644 8.21245 9.95657 8.37754 9.9122C8.54264 9.86783 8.71856 9.89104 8.86663 9.97669L13.0585 12.3969L17.2513 9.97617C17.3994 9.89053 17.5748 9.86731 17.7399 9.91168C17.905 9.95605 18.0453 10.0639 18.1309 10.2119L18.1315 10.2125C18.2171 10.3605 18.2403 10.537 18.196 10.7021C18.1516 10.8672 18.0432 11.008 17.8952 11.0936L14.3482 13.1413L13.0585 13.8863L11.7687 13.1413L8.22122 11.0931Z" fill="white"/>
</svg>
