<svg width="27" height="27" viewBox="0 0 27 27" fill="none" xmlns="http://www.w3.org/2000/svg">
<rect x="0.883789" y="0.640137" width="26.1166" height="26.1166" rx="13.0583" fill="#4A4A4A"/>
<path d="M12.3099 13.6981C12.3099 12.7967 13.0405 12.0657 13.942 12.0657C14.8435 12.0657 15.5745 12.7967 15.5745 13.6981C15.5745 14.5996 14.8435 15.3306 13.942 15.3306C13.0405 15.3306 12.3099 14.5996 12.3099 13.6981ZM11.4274 13.6981C11.4274 15.0869 12.5532 16.2126 13.942 16.2126C15.3308 16.2126 16.4566 15.0869 16.4566 13.6981C16.4566 12.3094 15.3308 11.1837 13.942 11.1837C12.5532 11.1837 11.4274 12.3094 11.4274 13.6981ZM15.9685 11.084C15.9684 11.2002 16.0028 11.3138 16.0674 11.4105C16.1319 11.5071 16.2236 11.5825 16.331 11.627C16.4384 11.6715 16.5565 11.6832 16.6705 11.6606C16.7845 11.6379 16.8893 11.582 16.9715 11.4999C17.0537 11.4177 17.1097 11.313 17.1324 11.1991C17.1551 11.0851 17.1435 10.9669 17.0991 10.8595C17.0547 10.7521 16.9794 10.6603 16.8828 10.5957C16.7862 10.5311 16.6726 10.4966 16.5563 10.4966H16.5561C16.4003 10.4966 16.2509 10.5585 16.1407 10.6687C16.0306 10.7788 15.9686 10.9282 15.9685 11.084ZM11.9636 17.6841C11.4861 17.6623 11.2266 17.5828 11.0542 17.5156C10.8255 17.4266 10.6624 17.3206 10.4909 17.1493C10.3194 16.9781 10.2132 16.8151 10.1246 16.5865C10.0574 16.4141 9.97783 16.1545 9.95613 15.6771C9.93239 15.1609 9.92765 15.0059 9.92765 13.6982C9.92765 12.3905 9.93278 12.2359 9.95613 11.7193C9.97787 11.2418 10.058 10.9828 10.1246 10.8099C10.2136 10.5813 10.3196 10.4181 10.4909 10.2466C10.6622 10.0751 10.8251 9.96896 11.0542 9.88034C11.2265 9.81312 11.4861 9.73359 11.9636 9.71189C12.4798 9.68815 12.6348 9.68341 13.942 9.68341C15.2491 9.68341 15.4044 9.68854 15.921 9.71189C16.3984 9.73363 16.6575 9.81375 16.8304 9.88034C17.059 9.96896 17.2221 10.0754 17.3937 10.2466C17.5652 10.4179 17.671 10.5813 17.76 10.8099C17.8272 10.9823 17.9067 11.2418 17.9284 11.7193C17.9522 12.2359 17.9569 12.3905 17.9569 13.6982C17.9569 15.0059 17.9522 15.1605 17.9284 15.6771C17.9067 16.1545 17.8268 16.414 17.76 16.5865C17.671 16.8151 17.5649 16.9782 17.3937 17.1493C17.2224 17.3204 17.059 17.4266 16.8304 17.5156C16.658 17.5828 16.3984 17.6624 15.921 17.6841C15.4048 17.7078 15.2497 17.7125 13.942 17.7125C12.6342 17.7125 12.4796 17.7078 11.9636 17.6841ZM11.923 8.83092C11.4017 8.85466 11.0455 8.93732 10.7344 9.05837C10.4122 9.18338 10.1394 9.35109 9.86688 9.6232C9.59433 9.89531 9.42705 10.1685 9.30204 10.4906C9.18098 10.8019 9.09832 11.158 9.07458 11.6793C9.05045 12.2014 9.04492 12.3683 9.04492 13.6981C9.04492 15.028 9.05045 15.1949 9.07458 15.717C9.09832 16.2384 9.18098 16.5943 9.30204 16.9056C9.42705 17.2276 9.59437 17.5011 9.86688 17.7731C10.1394 18.0451 10.4122 18.2125 10.7344 18.3379C11.0461 18.4589 11.4017 18.5416 11.923 18.5653C12.4454 18.5891 12.6121 18.595 13.942 18.595C15.2719 18.595 15.4388 18.5895 15.9609 18.5653C16.4823 18.5416 16.8383 18.4589 17.1496 18.3379C17.4716 18.2125 17.7445 18.0452 18.0171 17.7731C18.2896 17.501 18.4566 17.2276 18.5819 16.9056C18.703 16.5943 18.786 16.2383 18.8094 15.717C18.8331 15.1945 18.8386 15.028 18.8386 13.6981C18.8386 12.3683 18.8331 12.2014 18.8094 11.6793C18.7856 11.1579 18.703 10.8017 18.5819 10.4906C18.4566 10.1687 18.2892 9.89574 18.0171 9.6232C17.745 9.35066 17.4716 9.18338 17.15 9.05837C16.8383 8.93732 16.4823 8.85427 15.9613 8.83092C15.4392 8.80718 15.2723 8.80127 13.9424 8.80127C12.6125 8.80127 12.4454 8.80679 11.923 8.83092Z" fill="white"/>
</svg>
