<svg width="18" height="20" viewBox="0 0 18 20" fill="none" xmlns="http://www.w3.org/2000/svg">
<path d="M0.980957 19.1032V17.9717C0.980957 15.8712 1.8154 13.8566 3.30071 12.3713C4.78602 10.886 6.80054 10.0516 8.90109 10.0516M8.90109 10.0516C11.0016 10.0516 13.0162 10.886 14.5015 12.3713C15.9868 13.8566 16.8212 15.8712 16.8212 17.9717V19.1032M8.90109 10.0516C10.1014 10.0516 11.2526 9.57475 12.1013 8.726C12.9501 7.87725 13.4269 6.7261 13.4269 5.52579C13.4269 4.32547 12.9501 3.17432 12.1013 2.32557C11.2526 1.47682 10.1014 1 8.90109 1C7.70077 1 6.54962 1.47682 5.70087 2.32557C4.85212 3.17432 4.3753 4.32547 4.3753 5.52579C4.3753 6.7261 4.85212 7.87725 5.70087 8.726C6.54962 9.57475 7.70077 10.0516 8.90109 10.0516Z" stroke="#050C12" stroke-width="1.18802" stroke-linecap="round" stroke-linejoin="round"/>
</svg>
