<svg width="28" height="27" viewBox="0 0 28 27" fill="none" xmlns="http://www.w3.org/2000/svg">
<rect x="0.921875" y="0.640137" width="26.1166" height="26.1166" rx="13.0583" fill="#4A4A4A"/>
<path fill-rule="evenodd" clip-rule="evenodd" d="M18.2377 10.1226C18.7038 10.2481 19.0714 10.6155 19.1968 11.0815C19.4299 11.9329 19.4209 13.7073 19.4209 13.7073C19.4209 13.7073 19.4209 15.4727 19.1968 16.3241C19.0714 16.7901 18.7038 17.1575 18.2377 17.283C17.3862 17.507 13.98 17.507 13.98 17.507C13.98 17.507 10.5828 17.507 9.72226 17.274C9.25615 17.1485 8.88864 16.7811 8.76315 16.3151C8.53906 15.4727 8.53906 13.6983 8.53906 13.6983C8.53906 13.6983 8.53906 11.9329 8.76315 11.0815C8.88864 10.6155 9.26512 10.2392 9.72226 10.1137C10.5738 9.88965 13.98 9.88965 13.98 9.88965C13.98 9.88965 17.3862 9.88965 18.2377 10.1226ZM15.6123 13.6982L12.8918 15.3305V12.0659L15.6123 13.6982Z" fill="white"/>
</svg>
